<?xml version="1.0" encoding="UTF-8" standalone="no"?>
<!-- Created with Inkscape (http://www.inkscape.org/) -->

<svg
   xmlns:dc="http://purl.org/dc/elements/1.1/"
   xmlns:cc="http://creativecommons.org/ns#"
   xmlns:rdf="http://www.w3.org/1999/02/22-rdf-syntax-ns#"
   xmlns:svg="http://www.w3.org/2000/svg"
   xmlns="http://www.w3.org/2000/svg"
   xmlns:xlink="http://www.w3.org/1999/xlink"
   xmlns:sodipodi="http://sodipodi.sourceforge.net/DTD/sodipodi-0.dtd"
   xmlns:inkscape="http://www.inkscape.org/namespaces/inkscape"
   width="86"
   height="86"
   id="svg2"
   version="1.1"
   inkscape:version="0.48.4 r9939"
   sodipodi:docname="harbour-chennzeihhan.svg"
   inkscape:export-filename="/home/buschmann/Dokumente/Entwicklung/Projekte/Chennzeihhan/harbour-chennzeihhan.png"
   inkscape:export-xdpi="90"
   inkscape:export-ydpi="90">
  <defs
     id="defs4">
    <linearGradient
       id="linearGradient3789">
      <stop
         style="stop-color:#b4adaf;stop-opacity:1;"
         offset="0"
         id="stop3791" />
      <stop
         style="stop-color:#261f20;stop-opacity:1;"
         offset="1"
         id="stop3793" />
    </linearGradient>
    <linearGradient
       inkscape:collect="always"
       xlink:href="#linearGradient3789"
       id="linearGradient3845"
       x1="30"
       y1="11.666667"
       x2="30"
       y2="58.333332"
       gradientUnits="userSpaceOnUse"
       spreadMethod="reflect"
       gradientTransform="matrix(1.5,0,0,1.5,0,-7.5)" />
    <linearGradient
       id="linearGradient3789-6">
      <stop
         style="stop-color:#0a75c2;stop-opacity:1;"
         offset="0"
         id="stop3791-0" />
      <stop
         style="stop-color:#064572;stop-opacity:1;"
         offset="1"
         id="stop3793-4" />
    </linearGradient>
    <linearGradient
       y2="80"
       x2="45"
       y1="10"
       x1="45"
       spreadMethod="reflect"
       gradientUnits="userSpaceOnUse"
       id="linearGradient3878"
       xlink:href="#linearGradient3789-6"
       inkscape:collect="always" />
    <linearGradient
       inkscape:collect="always"
       xlink:href="#linearGradient3789"
       id="linearGradient2994"
       gradientUnits="userSpaceOnUse"
       gradientTransform="matrix(1.4333333,0,0,1.4333333,0,-3.1666667)"
       spreadMethod="reflect"
       x1="30"
       y1="11.666667"
       x2="30"
       y2="58.333332" />
    <radialGradient
       r="60.765"
       gradientTransform="matrix(0.39194,0,0,0.37891,-192.69,807.88)"
       cx="1135.4"
       cy="852.35"
       gradientUnits="userSpaceOnUse"
       xlink:href="#linearGradient4127"
       id="radialGradient3197" />
    <linearGradient
       id="linearGradient4127">
      <stop
         offset="0"
         stop-color="#aaa8a8"
         id="stop4129" />
      <stop
         offset="1"
         stop-opacity="0"
         stop-color="#aaa8a8"
         id="stop4131" />
    </linearGradient>
    <radialGradient
       r="60.765"
       gradientTransform="matrix(0.39194,0,0,0.37891,127.58,805.64)"
       cx="1135.4"
       cy="852.35"
       gradientUnits="userSpaceOnUse"
       xlink:href="#linearGradient4127"
       id="radialGradient3200" />
    <filter
       color-interpolation-filters="sRGB"
       height="1.3728"
       x="-.041455"
       y="-.18641"
       width="1.0829"
       id="filter4028">
      <feGaussianBlur
         stdDeviation="5.4438508"
         id="feGaussianBlur4030" />
    </filter>
    <radialGradient
       r="8.0812"
       gradientTransform="matrix(0.39194,0,0,1.5188,127.58,-346.9)"
       cx="717.27"
       cy="1013"
       gradientUnits="userSpaceOnUse"
       id="radialGradient3205">
      <stop
         offset="0"
         stop-color="#fff"
         id="stop3968" />
      <stop
         offset="1"
         stop-opacity="0"
         stop-color="#fff"
         id="stop3970" />
    </radialGradient>
    <radialGradient
       r="37.415"
       gradientTransform="matrix(0.39184,-0.0088934,0.02018,0.88914,101.92,263.4)"
       cx="1038.4"
       cy="1111"
       gradientUnits="userSpaceOnUse"
       xlink:href="#linearGradient3881"
       id="radialGradient3178" />
    <linearGradient
       id="linearGradient3881">
      <stop
         offset="0"
         stop-color="#fff"
         id="stop3883" />
      <stop
         offset="1"
         stop-opacity="0"
         stop-color="#fff"
         id="stop3885" />
    </linearGradient>
    <radialGradient
       r="37.415"
       gradientTransform="matrix(0.39184,-0.0088934,0.02018,0.88914,102.04,268.77)"
       cx="492.87"
       cy="1100.8"
       gradientUnits="userSpaceOnUse"
       xlink:href="#linearGradient3881"
       id="radialGradient3184" />
    <filter
       color-interpolation-filters="sRGB"
       height="1.5062"
       x="-.010884"
       y="-.25308"
       width="1.0218"
       id="filter4014">
      <feGaussianBlur
         stdDeviation="4.260834"
         id="feGaussianBlur4016" />
    </filter>
    <linearGradient
       y2="1122.7"
       x2="705.35"
       gradientTransform="matrix(0.39194,0,0,0.45167,127.58,731.43)"
       y1="1066.1"
       gradientUnits="userSpaceOnUse"
       x1="708.87"
       id="linearGradient3188">
      <stop
         offset="0"
         stop-color="#fff"
         id="stop3911" />
      <stop
         offset="1"
         stop-opacity="0"
         stop-color="#fff"
         id="stop3913" />
    </linearGradient>
    <radialGradient
       r="43.781"
       gradientTransform="matrix(0.39194,0,0,0.72289,127.58,454.3)"
       cx="718.22"
       cy="1028.1"
       gradientUnits="userSpaceOnUse"
       id="radialGradient3193">
      <stop
         offset="0"
         stop-color="#fefefe"
         id="stop3855" />
      <stop
         offset="1"
         stop-opacity="0"
         stop-color="#fefefe"
         id="stop3857" />
    </radialGradient>
    <filter
       color-interpolation-filters="sRGB"
       id="filter3847">
      <feGaussianBlur
         stdDeviation="4.6412023"
         id="feGaussianBlur3849" />
    </filter>
    <filter
       color-interpolation-filters="sRGB"
       height="1.5617"
       x="-.016576"
       y="-.28084"
       width="1.0332"
       id="filter3873">
      <feGaussianBlur
         stdDeviation="4.2804102"
         id="feGaussianBlur3875" />
    </filter>
    <linearGradient
       y2="717.04"
       x2="1016.2"
       gradientTransform="matrix(0.39194,0,0,0.39194,127.58,794.54)"
       y1="717.04"
       gradientUnits="userSpaceOnUse"
       x1="457.63"
       id="linearGradient3235">
      <stop
         offset="0"
         stop-color="#ececec"
         id="stop4040" />
      <stop
         offset="1"
         stop-opacity="0"
         stop-color="#ececec"
         id="stop4042" />
    </linearGradient>
    <linearGradient
       y2="1210.9"
       x2="462.87"
       gradientTransform="matrix(0.40651,0,0,0.43912,401.92,731.33)"
       y1="1210.9"
       gradientUnits="userSpaceOnUse"
       xlink:href="#linearGradient4081"
       x1="314.26"
       id="linearGradient3199" />
    <linearGradient
       id="linearGradient4081">
      <stop
         offset="0"
         stop-color="#636163"
         id="stop4083" />
      <stop
         offset="1"
         stop-opacity="0"
         stop-color="#636163"
         id="stop4085" />
    </linearGradient>
    <linearGradient
       y2="1210.9"
       x2="462.87"
       gradientTransform="matrix(0.40651,0,0,0.43912,117.48,734.13)"
       y1="1210.9"
       gradientUnits="userSpaceOnUse"
       xlink:href="#linearGradient4081"
       x1="314.26"
       id="linearGradient3139" />
    <radialGradient
       inkscape:collect="always"
       xlink:href="#linearGradient4127"
       id="radialGradient4149"
       gradientUnits="userSpaceOnUse"
       gradientTransform="matrix(0.08037018,0,0,0.07769828,-81.923619,-16.91905)"
       cx="1135.4"
       cy="852.35"
       r="60.765" />
    <radialGradient
       inkscape:collect="always"
       xlink:href="#linearGradient4127"
       id="radialGradient4152"
       gradientUnits="userSpaceOnUse"
       gradientTransform="matrix(0.08037018,0,0,0.07769828,-16.249898,-17.378378)"
       cx="1135.4"
       cy="852.35"
       r="60.765" />
    <radialGradient
       inkscape:collect="always"
       xlink:href="#radialGradient3205"
       id="radialGradient4157"
       gradientUnits="userSpaceOnUse"
       gradientTransform="matrix(0.08037018,0,0,0.31144112,-16.249898,-253.71519)"
       cx="717.27"
       cy="1013"
       r="8.0812" />
    <radialGradient
       inkscape:collect="always"
       xlink:href="#linearGradient3881"
       id="radialGradient4160"
       gradientUnits="userSpaceOnUse"
       gradientTransform="matrix(0.08034968,-0.00182366,0.00413806,0.1823247,-21.51167,-128.56868)"
       cx="1038.4"
       cy="1111"
       r="37.415" />
    <radialGradient
       inkscape:collect="always"
       xlink:href="#linearGradient3881"
       id="radialGradient4164"
       gradientUnits="userSpaceOnUse"
       gradientTransform="matrix(0.08034968,-0.00182366,0.00413806,0.1823247,-21.487063,-127.46752)"
       cx="492.87"
       cy="1100.8"
       r="37.415" />
    <linearGradient
       inkscape:collect="always"
       xlink:href="#linearGradient3188"
       id="linearGradient4169"
       gradientUnits="userSpaceOnUse"
       gradientTransform="matrix(0.08037018,0,0,0.09261826,-16.249898,-32.595685)"
       x1="708.87"
       y1="1066.1"
       x2="705.35"
       y2="1122.7" />
    <radialGradient
       inkscape:collect="always"
       xlink:href="#radialGradient3193"
       id="radialGradient4174"
       gradientUnits="userSpaceOnUse"
       gradientTransform="matrix(0.08037018,0,0,0.14823391,-16.249898,-89.423231)"
       cx="718.22"
       cy="1028.1"
       r="43.781" />
    <linearGradient
       inkscape:collect="always"
       xlink:href="#linearGradient3235"
       id="linearGradient4189"
       gradientUnits="userSpaceOnUse"
       gradientTransform="matrix(0.08037018,0,0,0.08037018,-16.249898,-19.654515)"
       x1="457.63"
       y1="717.04"
       x2="1016.2"
       y2="717.04" />
    <linearGradient
       inkscape:collect="always"
       xlink:href="#linearGradient4081"
       id="linearGradient4195"
       gradientUnits="userSpaceOnUse"
       gradientTransform="matrix(0.08335787,0,0,0.09004479,40.005538,-32.616191)"
       x1="314.26"
       y1="1210.9"
       x2="462.87"
       y2="1210.9" />
    <linearGradient
       inkscape:collect="always"
       xlink:href="#linearGradient4081"
       id="linearGradient4202"
       gradientUnits="userSpaceOnUse"
       gradientTransform="matrix(0.08335787,0,0,0.09004479,-18.320977,-32.04203)"
       x1="314.26"
       y1="1210.9"
       x2="462.87"
       y2="1210.9" />
  </defs>
  <sodipodi:namedview
     id="base"
     pagecolor="#ffffff"
     bordercolor="#666666"
     borderopacity="1.0"
     inkscape:pageopacity="0.0"
     inkscape:pageshadow="2"
     inkscape:zoom="0.99999999"
     inkscape:cx="453.75762"
     inkscape:cy="-139.42418"
     inkscape:document-units="px"
     inkscape:current-layer="layer2"
     showgrid="true"
     inkscape:window-width="1434"
     inkscape:window-height="966"
     inkscape:window-x="1430"
     inkscape:window-y="22"
     inkscape:window-maximized="0"
     inkscape:snap-bbox="true"
     inkscape:snap-global="true"
     inkscape:snap-from-guide="true">
    <inkscape:grid
       type="xygrid"
       id="grid2985"
       empspacing="5"
       visible="true"
       enabled="true"
       snapvisiblegridlinesonly="true" />
  </sodipodi:namedview>
  <metadata
     id="metadata7">
    <rdf:RDF>
      <cc:Work
         rdf:about="">
        <dc:format>image/svg+xml</dc:format>
        <dc:type
           rdf:resource="http://purl.org/dc/dcmitype/StillImage" />
        <dc:title></dc:title>
      </cc:Work>
    </rdf:RDF>
  </metadata>
  <g
     inkscape:groupmode="layer"
     id="layer2"
     inkscape:label="Ebene"
     style="display:inline"
     transform="translate(0,-4)">
    <path
       style="fill:url(#linearGradient2994);fill-opacity:1;stroke:none"
       d="M 43,4 C 19.251756,4 0,23.251756 0,47 L 0,87.790278 C 0,89.01865 0.98134982,90 2.2097222,90 L 43,90 83.790278,90 C 85.01865,90 86,89.01865 86,87.790278 L 86,47 C 86,23.251756 66.748244,4 43,4 z"
       id="path3837"
       inkscape:connector-curvature="0" />
    <g
       id="g4205">
      <path
         style="fill:#010001"
         inkscape:connector-curvature="0"
         id="rect4054"
         d="m 9.704212,68.634982 h 8.013437 c 0.221174,0 0.357517,0.19665 0.399246,0.431276 0.828535,4.659109 4.37982,8.664494 0,14.573837 -0.138241,0.18652 -0.198889,0.330081 -0.399246,0.431297 -2.442644,1.233892 -4.945574,2.14285 -8.013437,0 -0.1857389,-0.12974 -0.298584,-0.218529 -0.3992466,-0.431297 -2.2988981,-4.858014 -1.4725579,-9.715823 0,-14.573837 0.068827,-0.22706 0.1780656,-0.431276 0.3992466,-0.431276 z" />
      <path
         style="opacity:0.73451;fill:url(#linearGradient4202)"
         inkscape:connector-curvature="0"
         id="path4079"
         d="m 9.704212,68.634982 h 8.013437 c 0.221174,0 0.357517,0.19665 0.399246,0.431276 0.828535,4.659109 4.37982,8.664494 0,14.573837 -0.138241,0.18652 -0.198889,0.330081 -0.399246,0.431297 -2.442644,1.233892 -4.945574,2.14285 -8.013437,0 -0.1857389,-0.12974 -0.298584,-0.218529 -0.3992466,-0.431297 -2.2988981,-4.858014 -1.4725579,-9.715823 0,-14.573837 0.068827,-0.22706 0.1780656,-0.431276 0.3992466,-0.431276 z" />
      <path
         style="opacity:0.74335997"
         inkscape:connector-curvature="0"
         id="path4077"
         d="m 17.650111,74.231492 c 0,2.841731 -0.426515,5.145404 -0.95263,5.145404 -0.526115,0 -0.95263,-2.303673 -0.95263,-5.145404 0,-2.841732 0.426515,-5.145405 0.95263,-5.145405 0.526115,0 0.95263,2.303673 0.95263,5.145405 z" />
      <path
         style="opacity:0.78760998;fill:#07100c"
         inkscape:connector-curvature="0"
         id="rect3828"
         d="m 15.915399,50.630946 h 55.826867 c 0.18816,0 0.339636,0.151475 0.339636,0.339636 v 17.831173 c 0,0.188161 -0.151482,0.339636 -0.339636,0.339636 H 15.915399 c -0.188158,0 -0.339636,-0.151475 -0.339636,-0.339636 V 50.970582 c 0,-0.188161 0.15148,-0.339636 0.339636,-0.339636 z" />
      <path
         style="fill:#4eb47f;stroke:#000000;stroke-width:0.08037018px"
         inkscape:connector-curvature="0"
         id="path3026"
         d="m 5.0207019,66.215305 c 0.087937,-4.526026 0.3167521,-9.193132 0,-13.31458 C -0.46068635,43.652023 10.1984,41.270487 17.68566,43.970272 l -0.162373,9.742276 c -3.088164,4.546531 -1.890219,9.092858 0.162373,13.639185 -4.618917,1.80594 -8.910973,1.813773 -12.6649581,-1.136613 z" />
      <path
         style="fill:#010001"
         inkscape:connector-curvature="0"
         id="path4109"
         d="m 68.030728,68.060821 h 8.013436 c 0.221175,0 0.357518,0.19665 0.399247,0.431297 0.828534,4.659109 4.37982,8.664494 0,14.573837 -0.138244,0.18652 -0.198889,0.330081 -0.399247,0.431277 -2.442643,1.233891 -4.945573,2.142849 -8.013436,0 -0.185741,-0.12972 -0.298584,-0.21853 -0.399247,-0.431277 -2.298898,-4.858014 -1.472558,-9.715823 0,-14.573837 0.06883,-0.22708 0.178066,-0.431297 0.399247,-0.431297 z" />
      <path
         style="opacity:0.73451;fill:url(#linearGradient4195)"
         inkscape:connector-curvature="0"
         id="path4111"
         d="m 68.030728,68.060821 h 8.013436 c 0.221175,0 0.357518,0.19665 0.399247,0.431297 0.828534,4.659109 4.37982,8.664494 0,14.573837 -0.138244,0.18652 -0.198889,0.330081 -0.399247,0.431277 -2.442643,1.233891 -4.945573,2.142849 -8.013436,0 -0.185741,-0.12972 -0.298584,-0.21853 -0.399247,-0.431277 -2.298898,-4.858014 -1.472558,-9.715823 0,-14.573837 0.06883,-0.22708 0.178066,-0.431297 0.399247,-0.431297 z" />
      <path
         style="fill:#4eb47f;stroke:#000000;stroke-width:0.08037018px"
         inkscape:connector-curvature="0"
         id="path3028"
         d="M 81.252826,66.379351 C 79.889933,61.995224 79.540802,57.611303 79.466735,53.227177 83.108759,44.592211 75.65677,40.779785 67.776005,44.296724 l 0.162371,9.742275 c 3.088164,4.546532 1.890219,9.092858 -0.162371,13.639185 4.618917,1.80592 9.722795,1.651409 13.47678,-1.298997 z" />
      <path
         style="fill:#4eb47f"
         inkscape:connector-curvature="0"
         id="path3974"
         d="m 67.534489,44.643271 c -1.536721,0.195112 -5.650151,-0.661433 -9.442071,-0.5952 -3.791921,0.06623 -8.39915,0.081 -13.196467,0.07019 -4.797317,-0.01087 -9.784927,-0.04712 -14.338021,-0.08307 -4.552888,-0.03597 -8.67126,-0.07155 -11.730101,-0.08081 1.081514,-3.738195 2.185707,-9.17283 6.017613,-10.925456 4.581597,-2.095686 11.391142,-2.970871 17.389275,-3.026031 5.998133,-0.05522 16.730425,0.675295 18.633767,2.579416 2.895205,2.896436 5.074144,7.310705 6.666005,12.061064 z" />
      <path
         style="opacity:0.78760998;fill:#545454"
         inkscape:connector-curvature="0"
         id="rect3825"
         d="m 24.831293,33.959782 c 7.988215,-3.680985 34.855651,-1.88175 35.558997,0.162365 3.380166,2.7531 4.466765,6.642833 5.033543,9.619445 -5.79082,0.657742 -33.289012,0.271742 -44.815286,0.240471 -0.681836,-0.953332 3.241342,-10.000237 4.221721,-10.022178 z" />
      <path
         style="opacity:0.78760998;fill:url(#linearGradient4189)"
         inkscape:connector-curvature="0"
         id="path4036"
         d="m 24.831293,33.959782 c 7.988215,-3.680985 34.855651,-1.88175 35.558997,0.162365 3.380166,2.7531 4.466765,6.642833 5.033543,9.619445 -5.79082,0.657742 -33.289012,0.271742 -44.815286,0.240471 -0.681836,-0.953332 3.241342,-10.000237 4.221721,-10.022178 z" />
      <path
         style="fill:#4eb47f;stroke:#000000;stroke-width:0.07156912px"
         inkscape:connector-curvature="0"
         id="path3030"
         d="m 17.685044,44.130627 c 15.983401,-9.695112 37.060017,-8.293135 50.01144,0.162385 l 0.649478,9.903655 C 51.513419,49.596411 33.869668,49.466199 17.03651,53.552869 z" />
      <path
         style="opacity:0.78760998;fill:#fffcfc;stroke:#858585;stroke-width:1.39041197"
         inkscape:connector-curvature="0"
         id="path3980"
         d="m 14.289295,48.846946 c 0,2.60751 -2.186527,4.721241 -4.8836465,4.721241 -2.6971194,0 -4.8836461,-2.113731 -4.8836461,-4.721241 0,-2.607509 2.1865267,-4.72124 4.8836461,-4.72124 2.6971195,0 4.8836465,2.113731 4.8836465,4.72124 z" />
      <path
         style="opacity:0.78760998;fill:#fffcfc"
         inkscape:connector-curvature="0"
         id="path3032"
         d="m 14.289295,48.846946 c 0,2.60751 -2.186527,4.721241 -4.8836465,4.721241 -2.6971194,0 -4.8836461,-2.113731 -4.8836461,-4.721241 0,-2.607509 2.1865267,-4.72124 4.8836461,-4.72124 2.6971195,0 4.8836465,2.113731 4.8836465,4.72124 z" />
      <path
         style="opacity:0.78760998;fill:#fffcfc;stroke:#858585;stroke-width:1.39041197"
         inkscape:connector-curvature="0"
         id="path3982"
         d="m 79.870739,48.846946 c 0,2.60751 -2.186526,4.721241 -4.883646,4.721241 -2.697119,0 -4.883646,-2.113731 -4.883646,-4.721241 0,-2.607509 2.186527,-4.72124 4.883646,-4.72124 2.69712,0 4.883646,2.113731 4.883646,4.72124 z" />
      <path
         style="opacity:0.78760998;fill:#fffcfc"
         inkscape:connector-curvature="0"
         id="path3035"
         d="m 79.887144,48.846946 c 0,2.60751 -2.186527,4.721241 -4.883646,4.721241 -2.697119,0 -4.883646,-2.113731 -4.883646,-4.721241 0,-2.607509 2.186527,-4.72124 4.883646,-4.72124 2.697119,0 4.883646,2.113731 4.883646,4.72124 z" />
      <path
         style="opacity:0.78760998;fill:#fffcfc"
         inkscape:connector-curvature="0"
         id="path3037"
         d="m 14.510757,61.950112 c 0,1.440651 -1.118834,2.608534 -2.499034,2.608534 -1.38016,0 -2.4990345,-1.167904 -2.4990345,-2.608534 0,-1.440672 1.1188335,-2.608535 2.4990345,-2.608535 1.380159,0 2.499034,1.167884 2.499034,2.608535 z" />
      <path
         style="opacity:0.78760998;fill:#fffcfc"
         inkscape:connector-curvature="0"
         id="path3039"
         d="m 76.032066,61.683537 c 0,1.285853 -1.078746,2.328221 -2.409424,2.328221 -1.3307,0 -2.409424,-1.042409 -2.409424,-2.328221 0,-1.285873 1.078745,-2.328221 2.409424,-2.328221 1.330699,0 2.409424,1.042389 2.409424,2.328221 z" />
      <path
         inkscape:connector-curvature="0"
         id="path3041"
         style="text-indent:0;text-transform:none;block-progression:tb;color:#000000;fill:#808080"
         d="m 15.123878,56.188 -4.078796,0.906661 c -1.1891685,0.08309 -2.1941136,0.729389 -2.8908985,1.587308 -0.7191362,0.885479 -1.158246,1.998018 -1.2733652,3.131841 -0.1151192,1.133926 0.099484,2.318379 0.8187735,3.252415 0.7192797,0.934036 1.9440053,1.523269 3.4960232,1.51197 l 60.153576,-0.324011 c 3.068479,0.666231 5.313652,0.4679 6.841534,-0.366663 1.545784,-0.844427 2.190013,-2.429315 1.984135,-3.925618 -0.640271,-4.652957 -5.333542,-5.535729 -8.507625,-5.930259 -1.849617,-3.944484 -48.910281,-5.979268 -56.544567,0.156233 z m 5.047077,-0.646607 c 15.153124,-2.737721 49.734612,-1.804116 51.941029,2.426648 1.527103,1.309107 3.848517,-1.466324 6.384666,4.275446 0.145542,0.873053 -0.118273,1.59871 -1.122668,2.147361 -1.004392,0.548672 -2.876955,0.821173 -5.756576,0.18082 l -0.09545,-0.0226 -0.09543,0.0025 -60.239701,0.324011 c -1.148649,0.0084 -1.7518051,-0.34829 -2.1373129,-0.848917 -0.3855283,-0.500647 -0.5534908,-1.2383 -0.4721651,-2.039377 0.081328,-0.801077 0.4177429,-1.634451 0.9016577,-2.230204 0.4838944,-0.595815 1.0701333,-0.946012 1.7455303,-0.971972 l 0.07786,-0.0025 0.07535,-0.01764 4.382691,-0.974494 0.266226,-0.05776 0.180831,-0.200916 c 1.647964,-1.196509 3.964579,-1.990286 3.964579,-1.990286 z" />
      <path
         style="opacity:0.78760998;fill:#747574;fill-opacity:0.99216003"
         inkscape:connector-curvature="0"
         id="rect3815"
         d="m 14.600982,59.899538 c 17.960359,-3.75501 36.379226,-3.605318 55.205542,0 0.1767,0.03384 0.32475,0.144832 0.32475,0.324729 v 0.324749 c 0,0.179918 -0.145189,0.313513 -0.32475,0.32475 -18.635408,1.166325 -37.0026,0.99582 -55.205542,0 -0.179641,-0.0098 -0.32475,-0.144832 -0.32475,-0.32475 v -0.324749 c 0,-0.179897 0.148642,-0.287921 0.32475,-0.324729 z" />
      <path
         style="opacity:0.37611;fill:#f9fbf9;fill-opacity:0.99216003;filter:url(#filter3873)"
         inkscape:connector-curvature="0"
         id="path3861"
         d="m 707.47,965.44 c -97.429,1.0168 -194.87,9.4411 -290.53,28.094 206.4,10.308 413.38,12.133 619.75,0.125 -108.63,-19.03 -218.89,-28.97 -329.23,-28.22 z"
         transform="matrix(0.08037018,0,0,0.08037018,-16.249898,-19.654515)" />
      <path
         inkscape:connector-curvature="0"
         id="path3831"
         style="text-indent:0;text-transform:none;block-progression:tb;color:#000000;fill:#f7f7f7;filter:url(#filter3847)"
         d="m 699.84,897.57 c -84.932,1.3943 -170.72,4.6654 -253.56,24.504 -19.21,4.7846 -37.84,12.294 -54.408,23.121 -12.063,3.7917 -24.83,5.3826 -37.077,8.7468 -14.79,2.7004 -31.263,4.4724 -42.048,15.878 -17.656,17.273 -24.661,45.873 -14.875,68.75 6.7293,14.846 22.52,23.977 38.594,24.156 20.032,1.2218 40.102,-0.7285 60.156,0 231.52,-1.2191 463.05,-2.5893 694.56,-3.628 27.556,5.7114 58.835,9.3142 84.031,-5.7812 18.229,-10.796 23.243,-35.588 15.594,-54.5 -7.8236,-24.12 -30.763,-40.034 -54.469,-46.563 -14.998,-4.5938 -30.652,-7.082 -46.25,-8.8438 -6.4057,-12.051 -21.601,-13.35 -33.185,-17.476 -58.924,-15.305 -120.03,-19.092 -180.56,-23.834 -58.749,-3.694 -117.64,-5.2882 -176.5,-4.5312 z m 26.875,8.8438 c 104.53,0.47499 209.82,2.7882 312.73,22.61 20.262,4.458 41.15,9.7998 58.302,21.765 4.205,4.3707 8.2765,10.473 15.188,9.9375 12.55,0.98073 26.356,-1.081 37.25,6.5625 17.578,10.771 28.259,30.036 34.906,48.938 2.688,15.738 -10.014,30.113 -24.656,33.969 -23.075,8.4399 -48.17,3.0935 -71.749,-0.2094 -188.71,0.5952 -377.44,2.0614 -566.16,2.8928 -63.379,0.1926 -126.81,0.8819 -190.16,0.5666 -16.167,-1.7564 -29.676,-16.455 -29.469,-32.781 -1.6255,-21.181 9.1017,-44.413 29.344,-52.625 12.763,-3.2808 25.99,-4.8363 38.634,-8.4274 10.127,-2.7738 21.265,-3.0783 30.445,-8.3317 15.583,-11.675 33.757,-19.804 52.39,-25.522 29.485,-5.8244 59.459,-8.5403 89.402,-11.556 61.036,-5.4975 122.34,-7.3361 183.6,-7.7882 z"
         transform="matrix(0.08037018,0,0,0.08037018,-16.249898,-19.654515)" />
      <path
         style="opacity:0.78760998;fill:#808080"
         inkscape:connector-curvature="0"
         id="rect3818"
         d="m 38.305613,56.47508 c -0.179907,0 -0.419425,0.17149 -0.323991,0.323991 1.084015,1.73214 1.358813,3.464239 0,5.196358 -0.111043,0.141552 0.144084,0.323991 0.323991,0.323991 2.71824,0.297046 0.29114,5.712283 2.152487,7.135381 l 2.031852,-0.113028 c 2.554194,-1.32871 -0.806881,-7.022394 2.149821,-7.022394 0.179909,0 0.414421,-0.168455 0.323991,-0.323991 -1.007058,-1.73214 -1.42679,-3.464239 0,-5.196358 0.114383,-0.138865 -0.144084,-0.323991 -0.323991,-0.323991 z" />
      <path
         style="opacity:0.78760998;fill:url(#radialGradient4174)"
         inkscape:connector-curvature="0"
         id="path3851"
         d="m 38.305613,56.47508 c -0.179907,0 -0.419425,0.17149 -0.323991,0.323991 1.084015,1.73214 1.358813,3.464239 0,5.196358 -0.111043,0.141552 0.144084,0.323991 0.323991,0.323991 2.71824,0.297046 0.29114,5.712283 2.152487,7.135381 l 2.031852,-0.113028 c 2.554194,-1.32871 -0.806881,-7.022394 2.149821,-7.022394 0.179909,0 0.414421,-0.168455 0.323991,-0.323991 -1.007058,-1.73214 -1.42679,-3.464239 0,-5.196358 0.114383,-0.138865 -0.144084,-0.323991 -0.323991,-0.323991 z" />
      <path
         style="opacity:0.74335997;fill:#919191"
         inkscape:connector-curvature="0"
         id="path4113"
         d="m 76.296516,73.657332 c 0,2.841731 -0.426515,5.145404 -0.95263,5.145404 -0.526115,0 -0.95263,-2.303673 -0.95263,-5.145404 0,-2.841732 0.426515,-5.145405 0.95263,-5.145405 0.526115,0 0.95263,2.303673 0.95263,5.145405 z" />
      <path
         style="fill:#d6d6d6"
         inkscape:connector-curvature="0"
         id="path3019"
         d="m 1.4486027,73.658887 c 2.9226826,4.303744 83.7864373,5.618367 81.6722963,0.748459 2.623914,-0.769949 4.194038,-6.087948 -1.136613,-9.168729 0.865978,4.677973 -79.8021726,5.205381 -78.7502283,0 -3.88214597,1.122709 -2.39363459,5.61365 -1.7860906,8.42027 z" />
      <path
         style="fill:url(#linearGradient4169);stroke:#7a7a7a;stroke-width:0.08627788"
         inkscape:connector-curvature="0"
         id="path3907"
         d="m 1.4486027,73.658887 c 2.9226826,4.303744 83.7864373,5.618367 81.6722963,0.748459 2.623914,-0.769949 4.194038,-6.087948 -1.136613,-9.168729 0.865978,4.677973 -79.8021726,5.205381 -78.7502283,0 -3.88214597,1.122709 -2.39363459,5.61365 -1.7860906,8.42027 z" />
      <path
         style="fill:none;stroke:#ffffff;stroke-width:6.0999999;stroke-dasharray:3.04999995, 3.04999995;filter:url(#filter4014)"
         inkscape:connector-curvature="0"
         id="path3984"
         d="m 256.58,1090.7 c 31.77,54.349 952.79,53.399 939.44,0"
         transform="matrix(0.08037018,0,0,0.08037018,-16.249898,-19.654515)" />
      <path
         style="opacity:0.78760998;fill:#545454"
         inkscape:connector-curvature="0"
         id="path3021"
         d="m 25.382898,69.906337 c -1.415552,2.03421 -0.721536,9.215688 -2.469711,9.255264 -1.748217,0.03968 -1.211684,-6.872907 -3.052894,-9.278435 -0.974515,-1.273181 0.832615,-4.321789 2.580852,-4.361365 1.748216,-0.03968 3.857539,3.068478 2.941753,4.384536 z" />
      <path
         style="opacity:0.78760998;fill:url(#radialGradient4164)"
         inkscape:connector-curvature="0"
         id="path3877"
         d="m 25.382898,69.906337 c -1.415552,2.03421 -0.721536,9.215688 -2.469711,9.255264 -1.748217,0.03968 -1.211684,-6.872907 -3.052894,-9.278435 -0.974515,-1.273181 0.832615,-4.321789 2.580852,-4.361365 1.748216,-0.03968 3.857539,3.068478 2.941753,4.384536 z" />
      <path
         style="opacity:0.78760998;fill:#545454"
         inkscape:connector-curvature="0"
         id="path3024"
         d="m 69.228263,69.660269 c -1.415552,2.03421 -0.721536,9.215687 -2.469711,9.255263 -1.748217,0.03968 -1.211684,-6.872907 -3.052894,-9.27823 -0.974515,-1.273201 0.832615,-4.321789 2.580852,-4.361365 1.748216,-0.03968 3.857539,3.068478 2.941753,4.384537 z" />
      <path
         style="opacity:0.78760998;fill:url(#radialGradient4160)"
         inkscape:connector-curvature="0"
         id="path3879"
         d="m 69.228263,69.660269 c -1.415552,2.03421 -0.721536,9.215687 -2.469711,9.255263 -1.748217,0.03968 -1.211684,-6.872907 -3.052894,-9.27823 -0.974515,-1.273201 0.832615,-4.321789 2.580852,-4.361365 1.748216,-0.03968 3.857539,3.068478 2.941753,4.384537 z" />
      <path
         style="fill:url(#radialGradient4157)"
         inkscape:connector-curvature="0"
         id="rect3963"
         d="m 41.088241,59.243355 h 0.619704 c 0.18816,0 0.339636,0.151476 0.339636,0.339636 v 4.354188 c 0,0.188161 -0.15148,0.339637 -0.339636,0.339637 h -0.619704 c -0.188161,0 -0.339637,-0.151476 -0.339637,-0.339637 v -4.354188 c 0,-0.18816 0.15148,-0.339636 0.339637,-0.339636 z" />
      <path
         inkscape:connector-curvature="0"
         id="path4018"
         style="text-indent:0;text-transform:none;block-progression:tb;opacity:0.60176996;color:#000000;fill:#ffffff;filter:url(#filter4028)"
         d="m 651.56,745.4 c -23.162,-0.0419 -35.223,0.73225 -49.731,7.5109 l 0.4375,0.90625 c 19.042,-8.8969 48.27,-10.899 81.375,-8.5 33.105,2.3992 72.1,3.1237 106.68,11.658 38.315,13.817 82.258,27.474 116.26,47.467 3.3151,1.972 5.8733,3.8076 7.5938,5.4375 1.7205,1.63 2.5312,3.0577 2.5312,4.0938 3.2726,-1.9506 -7.3551,-9.0203 -9.625,-10.375 -36.732,-22.82 -82.79,-22.92 -118.53,-31.461 -58.009,0.24398 -73.419,-29.643 -136.99,-26.737 z"
         transform="matrix(0.07957866,-0.01125088,0.01125088,0.07957866,-25.551505,-9.5185299)" />
      <path
         style="opacity:0.60176996;fill:#131313;stroke:#7a7a7a;stroke-width:0.49105087"
         inkscape:connector-curvature="0"
         id="rect4046"
         d="m 35.641918,70.439487 h 13.889765 c 0.21326,0 0.384954,0.171694 0.384954,0.384954 v 4.935115 c 0,0.21326 -0.171686,0.384934 -0.384954,0.384934 H 35.641918 c -0.21326,0 -0.384955,-0.171674 -0.384955,-0.384934 v -4.935115 c 0,-0.21326 0.171687,-0.384954 0.384955,-0.384954 z" />
      <path
         style="opacity:0.78760998;fill:url(#radialGradient4152)"
         inkscape:connector-curvature="0"
         id="path4125"
         d="m 79.887144,48.846946 c 0,2.60751 -2.186527,4.721241 -4.883646,4.721241 -2.697119,0 -4.883646,-2.113731 -4.883646,-4.721241 0,-2.607509 2.186527,-4.72124 4.883646,-4.72124 2.697119,0 4.883646,2.113731 4.883646,4.72124 z" />
      <path
         style="opacity:0.78760998;fill:url(#radialGradient4149)"
         inkscape:connector-curvature="0"
         id="path4135"
         d="m 14.213423,49.298073 c 0,2.607509 -2.186526,4.72124 -4.8836457,4.72124 -2.6971195,0 -4.8836461,-2.113731 -4.8836461,-4.72124 0,-2.60751 2.1865266,-4.721241 4.8836461,-4.721241 2.6971197,0 4.8836457,2.113731 4.8836457,4.721241 z" />
      <path
         inkscape:connector-curvature="0"
         id="path4192"
         d="m 37.214707,73.88445 v -1.840984 h 0.366684 l 0.435747,1.303508 c 0.04018,0.121394 0.06949,0.212214 0.08791,0.272501 0.02093,-0.06697 0.05358,-0.165358 0.09795,-0.295119 l 0.440791,-1.28089 h 0.327764 v 1.840984 h -0.234832 v -1.540842 l -0.534954,1.540842 h -0.21976 l -0.532452,-1.567233 v 1.567233 z" />
      <path
         inkscape:connector-curvature="0"
         id="path4194"
         d="m 39.339102,72.305508 v -0.259951 h 0.226034 v 0.259951 z m 0,1.581034 V 72.55289 h 0.226034 v 1.333652 z" />
      <path
         inkscape:connector-curvature="0"
         id="path4196"
         d="m 40.780655,73.392312 0.222282,0.02889 c -0.02428,0.153198 -0.08644,0.273136 -0.186483,0.359773 -0.100044,0.08666 -0.222897,0.129966 -0.36857,0.129966 -0.182507,0 -0.32922,-0.05963 -0.440156,-0.178954 -0.110928,-0.119282 -0.16639,-0.290279 -0.16639,-0.512971 0,-0.143992 0.02386,-0.27 0.07158,-0.377983 0.04772,-0.108003 0.120346,-0.189001 0.217873,-0.243013 0.09753,-0.05399 0.203647,-0.081 0.318331,-0.081 0.144832,0 0.263294,0.03664 0.355385,0.10989 0.09209,0.07325 0.151111,0.177272 0.177065,0.312057 l -0.21976,0.03392 c -0.02093,-0.08959 -0.05798,-0.156971 -0.111137,-0.202186 -0.05316,-0.0452 -0.117418,-0.06781 -0.192764,-0.06781 -0.113856,0 -0.20637,0.04081 -0.277525,0.12244 -0.07116,0.08163 -0.106742,0.210758 -0.106742,0.387415 0,0.179158 0.03432,0.309329 0.102975,0.390531 0.06865,0.08122 0.158229,0.121825 0.268728,0.121825 0.08874,0 0.162832,-0.02721 0.222282,-0.08163 0.05944,-0.0544 0.09711,-0.138127 0.113022,-0.251155 z" />
      <path
         inkscape:connector-curvature="0"
         id="path4198"
         d="m 41.196921,73.88445 v -1.840984 h 0.226035 v 0.660551 c 0.105486,-0.122235 0.238605,-0.183362 0.399329,-0.183362 0.09879,0 0.184599,0.01948 0.257429,0.0584 0.07283,0.03894 0.124949,0.09273 0.156346,0.16138 0.03139,0.06865 0.04709,0.16827 0.04709,0.298871 v 0.845144 h -0.226034 v -0.845144 c 0,-0.113027 -0.02449,-0.195276 -0.07346,-0.246766 -0.04898,-0.05149 -0.118255,-0.07722 -0.207826,-0.07722 -0.06698,0 -0.129976,0.01743 -0.188997,0.0521 -0.05902,0.03474 -0.101089,0.08184 -0.126205,0.141284 -0.02511,0.05943 -0.03767,0.14149 -0.03767,0.246131 v 0.729614 z" />
      <path
         inkscape:connector-curvature="0"
         id="path4200"
         d="m 42.630272,72.305508 v -0.259951 h 0.226035 v 0.259951 z m 0,1.581034 V 72.55289 h 0.226035 v 1.333652 z" />
      <path
         inkscape:connector-curvature="0"
         id="path4202"
         d="m 43.15932,73.986979 0.21976,0.03264 c 0.0092,0.06781 0.03474,0.117211 0.0766,0.148174 0.05609,0.04187 0.132692,0.06279 0.229807,0.06279 0.104647,0 0.185436,-0.02092 0.242358,-0.06279 0.05693,-0.04185 0.09544,-0.100457 0.115533,-0.175795 0.01171,-0.04604 0.01716,-0.142741 0.01632,-0.290095 -0.09879,0.11637 -0.221852,0.174565 -0.369206,0.174565 -0.183346,0 -0.325242,-0.06615 -0.42572,-0.198413 -0.100461,-0.132283 -0.150692,-0.290935 -0.150692,-0.475959 0,-0.127238 0.02302,-0.244654 0.06907,-0.352247 0.04605,-0.107553 0.11281,-0.190663 0.200298,-0.249268 0.08749,-0.05859 0.190248,-0.08791 0.308283,-0.08791 0.15739,0 0.287163,0.06365 0.389302,0.190888 v -0.160745 h 0.208461 v 1.152812 c -2e-6,0.207621 -0.02114,0.35477 -0.06342,0.441407 -0.04228,0.08666 -0.109255,0.155085 -0.200923,0.205324 -0.09167,0.05022 -0.204486,0.07534 -0.338427,0.07534 -0.159067,0 -0.287573,-0.03578 -0.385528,-0.107368 -0.09795,-0.07156 -0.145253,-0.179364 -0.141904,-0.323355 z m 0.187111,-0.8012 c 0,0.174975 0.03474,0.302664 0.104231,0.383026 0.06949,0.08036 0.156555,0.120554 0.261202,0.120554 0.10381,0 0.190877,-0.03997 0.261202,-0.119938 0.07032,-0.07993 0.105483,-0.205304 0.105485,-0.376096 -2e-6,-0.163246 -0.03621,-0.286322 -0.108625,-0.369206 -0.07242,-0.08286 -0.159694,-0.124306 -0.261837,-0.124326 -0.100462,2e-5 -0.185856,0.04083 -0.256178,0.12244 -0.07033,0.08163 -0.105486,0.202822 -0.105486,0.363546 z" />
      <path
         inkscape:connector-curvature="0"
         id="path4204"
         d="m 45.503126,73.720404 c -0.08372,0.07116 -0.164298,0.121394 -0.241742,0.150697 -0.07744,0.0293 -0.160533,0.04394 -0.249268,0.04394 -0.146509,0 -0.25911,-0.03576 -0.337811,-0.107368 -0.0787,-0.07159 -0.118044,-0.163021 -0.118044,-0.274367 0,-0.06531 0.01487,-0.124962 0.04458,-0.178954 0.02972,-0.05401 0.06865,-0.09732 0.116788,-0.129985 0.04814,-0.03265 0.102344,-0.05734 0.162623,-0.07409 0.04437,-0.01169 0.111346,-0.02303 0.200925,-0.03392 0.182508,-0.02176 0.316876,-0.0477 0.403102,-0.07784 8.2e-4,-0.03098 0.0012,-0.05067 0.0012,-0.05904 -2e-6,-0.09209 -0.02135,-0.156971 -0.06405,-0.19464 -0.05777,-0.05106 -0.143579,-0.07659 -0.257429,-0.07661 -0.106324,2.1e-5 -0.18481,0.01866 -0.235467,0.0559 -0.05065,0.03724 -0.08811,0.103185 -0.112392,0.197778 l -0.221011,-0.03014 c 0.02009,-0.09459 0.05316,-0.170997 0.09921,-0.229172 0.04604,-0.05819 0.112601,-0.10298 0.199668,-0.134374 0.08707,-0.03139 0.187949,-0.0471 0.302644,-0.0471 0.113856,0 0.20637,0.01333 0.277525,0.04019 0.07116,0.0268 0.123483,0.06049 0.156973,0.101093 0.03349,0.0406 0.05693,0.09189 0.07032,0.153834 0.0075,0.03851 0.0113,0.108004 0.0113,0.208461 v 0.301373 c -2e-6,0.210143 0.0048,0.343061 0.01444,0.398734 0.0096,0.05567 0.02867,0.109029 0.05714,0.160109 h -0.236083 c -0.02344,-0.0469 -0.03851,-0.101729 -0.04521,-0.164518 z m -0.01884,-0.50483 c -0.08205,0.03348 -0.205119,0.06197 -0.369206,0.08541 -0.09293,0.01333 -0.158646,0.02846 -0.197156,0.0452 -0.03851,0.01681 -0.06823,0.04124 -0.08916,0.07347 -0.02093,0.03224 -0.03139,0.06802 -0.03139,0.107368 -2e-6,0.06029 0.02281,0.110505 0.06844,0.150696 0.04563,0.04017 0.112389,0.06027 0.200296,0.06027 0.08707,0 0.164507,-0.01907 0.232329,-0.05713 0.06781,-0.03808 0.117625,-0.0902 0.14944,-0.156336 0.02428,-0.05106 0.03641,-0.126418 0.03642,-0.226055 z" />
      <path
         inkscape:connector-curvature="0"
         id="path4206"
         d="m 46.064983,73.88445 v -1.333652 h 0.203438 v 0.189637 c 0.09795,-0.146513 0.239424,-0.21978 0.424448,-0.21978 0.08037,0 0.15425,0.01456 0.221646,0.04335 0.06739,0.02887 0.117834,0.06675 0.151324,0.113622 0.03349,0.0469 0.05693,0.10257 0.07032,0.16704 0.0084,0.04185 0.01255,0.115098 0.01255,0.219739 v 0.820045 h -0.226034 v -0.811248 c -3e-6,-0.09209 -0.0088,-0.160949 -0.02637,-0.206575 -0.01757,-0.04563 -0.04877,-0.08202 -0.09356,-0.109254 -0.04479,-0.02719 -0.09732,-0.04081 -0.157601,-0.04081 -0.09628,0 -0.179368,0.03055 -0.249268,0.09166 -0.06991,0.06113 -0.104858,0.177067 -0.104858,0.34788 v 0.728343 z" />
    </g>
    <g
       id="g3143"
       transform="matrix(0.16145154,0,0,0.16145154,-11.976246,46.664126)">
      <g
         id="g4360"
         transform="matrix(0.49930198,0,0,0.49930198,415.89276,-107.71655)">
        <path
           id="path4362"
           d="m -501.7,472.77 c -3.0332,0.0811 -5.5725,1.1427 -7.6155,3.1855 -2.0429,2.0431 -3.1045,4.5824 -3.1855,7.6155 v 105.12 c 0.081,3.033 1.1426,5.5722 3.1855,7.6152 2.043,2.043 4.5823,3.1045 7.6152,3.1856 h 694.69 0.0234 c 3.033,-0.081 5.5703,-1.1426 7.6133,-3.1856 2.043,-2.043 3.1065,-4.5823 3.1875,-7.6152 v -105.12 c -0.081,-3.0329 -1.1445,-5.5722 -3.1875,-7.6152 -2.03,-2.0421 -4.57,-3.1037 -7.6,-3.1848 h -0.0234 -694.69 z"
           inkscape:connector-curvature="0" />
        <path
           id="path4364"
           d="m -501.7,477.95 h 694.69 0.0234 c 1.62,0.0361 2.9521,0.5772 3.9961,1.6211 1.044,1.0441 1.5831,2.3762 1.6191,3.9961 v 105.12 c -0.036,1.62 -0.57516,2.9521 -1.6191,3.9961 -1.044,1.044 -2.3761,1.5851 -3.9961,1.6211 H 192.99 -501.7 c -1.62,-0.036 -2.9521,-0.57713 -3.9961,-1.6211 -1.044,-1.04397 -1.5851,-2.3761 -1.6211,-3.9961 v -105.12 c 0.036,-1.6199 0.57709,-2.952 1.6211,-3.9961 1.044,-1.0439 2.3761,-1.585 3.9961,-1.6211 z"
           inkscape:connector-curvature="0"
           style="fill:#ffffff" />
        <path
           id="path4366"
           d="m -501.7,480.11 c -0.963,0.027 -1.7749,0.3684 -2.4319,1.0253 -0.657,0.6571 -0.9984,1.4689 -1.0253,2.4319 v 105.12 c 0.027,0.96298 0.36838,1.7727 1.0254,2.4297 0.65698,0.65698 1.4686,1.0003 2.4316,1.0273 h 46.223 v -112.03 z"
           inkscape:connector-curvature="0"
           style="fill:#000080" />
        <g
           id="g4368"
           style="fill:#ffffff">
          <path
             id="path4370"
             d="m -481.4,493.94 0.7207,2.5918 h 2.7344 l -2.1582,1.584 0.71875,2.4473 -2.0156,-1.4395 -2.0156,1.4395 0.7207,-2.4473 -2.1602,-1.584 h 2.7344 z"
             inkscape:connector-curvature="0" />
          <path
             id="path4372"
             d="m -490.04,496.24 0.7207,2.5918 h 2.7363 l -2.1602,1.584 0.7207,2.4473 -2.0176,-1.4395 -2.0156,1.4395 0.7207,-2.4473 -2.1602,-1.584 h 2.7363 z"
             inkscape:connector-curvature="0" />
          <path
             id="path4374"
             d="m -472.75,496.24 0.71875,2.5918 h 2.7363 l -2.1602,1.584 0.7207,2.4473 -2.0156,-1.4395 -2.0176,1.4395 0.7207,-2.4473 -2.1602,-1.584 h 2.7363 z"
             inkscape:connector-curvature="0" />
          <path
             id="path4376"
             d="m -496.37,502.58 0.7207,2.5918 h 2.7363 l -2.1602,1.584 0.7207,2.4473 -2.0176,-1.4395 -2.0156,1.4395 0.7207,-2.4473 -2.1602,-1.584 h 2.7363 z"
             inkscape:connector-curvature="0" />
          <path
             id="path4378"
             d="m -466.42,502.58 0.71875,2.5918 h 2.7363 l -2.1602,1.584 0.7207,2.4473 -2.0156,-1.4395 -2.0176,1.4395 0.7207,-2.4473 -2.1602,-1.584 h 2.7363 z"
             inkscape:connector-curvature="0" />
          <path
             id="path4380"
             d="m -498.67,511.22 0.71875,2.5918 h 2.7363 l -2.1602,1.584 0.7207,2.4492 -2.0156,-1.4414 -2.0156,1.4414 0.71875,-2.4492 -2.1602,-1.584 h 2.7363 z"
             inkscape:connector-curvature="0" />
          <path
             id="path4382"
             d="m -464.12,511.22 0.7207,2.5918 h 2.7363 l -2.1602,1.584 0.71875,2.4492 -2.0156,-1.4414 -2.0156,1.4414 0.7207,-2.4492 -2.1602,-1.584 h 2.7363 z"
             inkscape:connector-curvature="0" />
          <path
             id="path4384"
             d="m -496.37,519.86 0.7207,2.5918 h 2.7363 l -2.1602,1.584 0.7207,2.4473 -2.0176,-1.4395 -2.0156,1.4395 0.7207,-2.4473 -2.1602,-1.584 h 2.7363 z"
             inkscape:connector-curvature="0" />
          <path
             id="path4386"
             d="m -466.42,519.86 0.71875,2.5918 h 2.7363 l -2.1602,1.584 0.7207,2.4473 -2.0156,-1.4395 -2.0176,1.4395 0.7207,-2.4473 -2.1602,-1.584 h 2.7363 z"
             inkscape:connector-curvature="0" />
          <path
             id="path4388"
             d="m -490.04,526.19 0.7207,2.5918 h 2.7363 l -2.1602,1.584 0.7207,2.4473 -2.0176,-1.4395 -2.0156,1.4395 0.7207,-2.4473 -2.1602,-1.584 h 2.7363 z"
             inkscape:connector-curvature="0" />
          <path
             id="path4390"
             d="m -472.75,526.19 0.71875,2.5918 h 2.7363 l -2.1602,1.584 0.7207,2.4473 -2.0156,-1.4395 -2.0176,1.4395 0.7207,-2.4473 -2.1602,-1.584 h 2.7363 z"
             inkscape:connector-curvature="0" />
        </g>
        <g
           id="g4392"
           style="fill:#ffffff">
          <path
             id="path4394"
             d="m -481.39,528.5 0.7207,2.5918 h 2.7344 l -2.1582,1.584 0.71875,2.4492 -2.0156,-1.4395 -2.0156,1.4395 0.7207,-2.4492 -2.1602,-1.584 h 2.7344 z"
             inkscape:connector-curvature="0" />
          <path
             id="path4396"
             d="m 11.005,535.27 c 0.79796,-0.039 2.2606,0.0748 4.3906,0.3418 2.1299,0.26704 3.5946,0.91999 4.3926,1.9609 0.93894,1.752 1.6535,3.7558 2.1426,6.0117 0.48895,2.256 0.73524,4.6199 0.73829,7.0918 0.099,3.453 -0.67533,6.7348 -2.3223,9.8457 -1.647,3.111 -4.7609,4.7733 -9.3418,4.9863 -4.656,-0.22198 -7.8371,-1.9011 -9.541,-5.0391 -1.704,-3.1379 -2.5081,-6.403 -2.4121,-9.793 0.012,-2.4719 0.27695,-4.8358 0.79297,-7.0918 0.51597,-2.2559 1.2119,-4.2597 2.0879,-6.0117 0.73797,-1.041 2.2137,-1.6939 4.4277,-1.9609 2.2139,-0.26695 3.7625,-0.38076 4.6445,-0.3418 z"
             inkscape:connector-curvature="0" />
          <path
             id="path4398"
             d="m -489.6,551.68 h 9.791 c 1.9139,0.051 3.4868,0.70594 4.7168,1.9629 1.2299,1.257 1.8642,2.8112 1.9062,4.6621 v 9.791 c -0.042,1.851 -0.67632,3.4051 -1.9062,4.6621 -1.23,1.257 -2.8029,1.9119 -4.7168,1.9629 h -9.791 z"
             inkscape:connector-curvature="0" />
        </g>
        <path
           id="path4400"
           d="m -486.29,554.99 v 16.416 h 6.4805 c 0.95694,-0.021 1.7424,-0.33812 2.3574,-0.95312 0.61495,-0.61498 0.93403,-1.4024 0.95508,-2.3594 v -9.791 c -0.0211,-0.95697 -0.34013,-1.7424 -0.95508,-2.3574 -0.61504,-0.61497 -1.4005,-0.93405 -2.3574,-0.95508 z"
           inkscape:connector-curvature="0"
           style="fill:#000080" />
      </g>
      <g
         id="g3129">
        <path
           id="path4412"
           d="m 380.21265,152.13418 h 3.44518 c 0.7895,0 0.86129,-0.0718 1.93789,-1.14839 l 3.87583,-3.51698 c 0.35887,-0.2871 0.43065,-0.43065 0.8613,-0.43065 0.2871,0 0.43065,0.0718 0.43065,0.43065 v 25.83887 c 0,0.71775 -0.5742,1.2202 -1.1484,1.2202 h -9.40235 c -0.7895,0 -1.2202,0.43065 -1.2202,1.22019 v 4.45003 c 0,0.7895 0.43065,1.22019 1.2202,1.22019 h 23.11169 c 0.86129,0 1.22019,-0.43064 1.22019,-1.22019 v -4.45003 c 0,-0.78949 -0.35887,-1.22019 -1.22019,-1.22019 h -4.45003 c -0.7895,0 -1.2202,-0.43065 -1.2202,-1.2202 v -33.80574 c 0,-0.78949 -0.35887,-1.14839 -1.22019,-1.14839 h -6.17237 c -0.35888,0 -0.646,0.0718 -0.8613,0.2871 l -7.39266,6.67517 c -0.9331,0.86129 -3.01454,0.86129 -3.01454,2.15324 v 3.51698 c 0,0.5742 0.5024,1.14839 1.22019,1.14839 z"
           inkscape:connector-curvature="0" />
        <path
           id="path4414"
           d="m 422.46857,138.35345 c -10.19175,0 -12.77614,7.17747 -12.77614,14.35493 0,5.88577 1.72259,12.34524 8.46916,12.34524 3.44519,0 5.81388,-5.45487 5.81388,-5.74197 0,-0.2871 -0.14355,-0.43065 -0.43065,-0.43065 -4.45003,0 -6.96227,-0.86129 -6.96227,-6.17237 0,-4.30648 1.50729,-7.46456 5.88577,-7.46456 3.51699,0 5.88577,1.07659 5.88577,7.46456 0,2.15324 -0.43064,5.95717 -2.36858,8.75676 l -12.13005,17.36922 c -0.35887,0.50239 -0.57419,1.00484 -0.57419,1.50729 0,0.71775 0.57419,1.07659 1.57904,1.07659 h 5.59817 c 0.646,0 1.0766,-0.43064 1.57904,-1.22019 l 10.26366,-15.50333 c 1.29194,-1.93789 2.94278,-5.09587 2.94278,-11.98624 0,-11.34015 -5.09587,-14.35493 -12.77614,-14.35493 z"
           inkscape:connector-curvature="0" />
        <path
           id="path4416"
           d="m 450.94376,153.92868 c 0,-0.21533 0,-0.5742 2.15324,-4.09119 l 5.67008,-9.40235 c 0.21532,-0.35887 0.2871,-0.646 0.2871,-0.9331 0,-0.78949 -0.5024,-1.14839 -1.5073,-1.14839 h -4.01938 c -1.93789,0 -13.13464,16.57982 -13.13464,28.78176 0,6.96227 4.66538,14.28303 12.91944,14.28303 8.18256,0 12.63234,-7.53646 12.63234,-14.28303 0,-7.96686 -1.93789,-13.56553 -9.68945,-13.56553 -1.93789,0 -3.87583,0.35887 -4.80888,0.64599 -0.35887,0 -0.5024,-0.0718 -0.5024,-0.2871 z m 2.29679,20.5992 c -4.73712,0 -5.95717,-4.23468 -5.95717,-7.39267 0,-2.44034 0.5742,-4.80887 1.43549,-6.53137 0.5024,-1.07659 3.87584,-1.14839 4.52178,-1.14839 0.5742,0 3.80408,0.0718 4.37828,1.14839 0.9331,1.7226 1.4355,4.09118 1.4355,6.53137 0,3.22989 -1.1484,7.39267 -5.81388,7.39267 z"
           inkscape:connector-curvature="0" />
        <path
           id="path4418"
           d="m 483.87273,138.35345 c -10.19175,0 -12.77614,7.17747 -12.77614,14.35493 0,5.88577 1.72259,12.34524 8.46916,12.34524 3.44518,0 5.81387,-5.45487 5.81387,-5.74197 0,-0.2871 -0.14355,-0.43065 -0.43065,-0.43065 -4.45002,0 -6.96226,-0.86129 -6.96226,-6.17237 0,-4.30648 1.50729,-7.46456 5.88577,-7.46456 3.51698,0 5.88577,1.07659 5.88577,7.46456 0,2.15324 -0.43065,5.95717 -2.36859,8.75676 l -12.13004,17.36922 c -0.35887,0.50239 -0.5742,1.00484 -0.5742,1.50729 0,0.71775 0.5742,1.07659 1.57905,1.07659 h 5.59817 c 0.646,0 1.07659,-0.43064 1.57904,-1.22019 l 10.26365,-15.50333 c 1.29195,-1.93789 2.94279,-5.09587 2.94279,-11.98624 0,-11.34015 -5.09588,-14.35493 -12.77614,-14.35493 z"
           inkscape:connector-curvature="0" />
        <flowRoot
           xml:space="preserve"
           id="flowRoot3113"
           style="font-size:60px;font-style:normal;font-variant:normal;font-weight:normal;font-stretch:normal;line-height:125%;letter-spacing:0px;word-spacing:0px;fill:#000000;fill-opacity:1;stroke:none;font-family:Euro Plate;-inkscape-font-specification:Euro Plate"
           transform="translate(38.505859,-69.439224)"><flowRegion
             id="flowRegion3115"><rect
               id="rect3117"
               width="358.85669"
               height="84.145706"
               x="164.04877"
               y="200.90485"
               style="font-size:60px;font-style:normal;font-variant:normal;font-weight:normal;font-stretch:normal;font-family:Euro Plate;-inkscape-font-specification:Euro Plate" /></flowRegion><flowPara
             id="flowPara3119">BI</flowPara></flowRoot>        <flowRoot
           xml:space="preserve"
           id="flowRoot3121"
           style="font-size:60px;font-style:normal;font-variant:normal;font-weight:normal;font-stretch:normal;line-height:125%;letter-spacing:0px;word-spacing:0px;fill:#000000;fill-opacity:1;stroke:none;font-family:Euro Plate;-inkscape-font-specification:Euro Plate"
           transform="translate(15.782422,-2.685974)"><flowRegion
             id="flowRegion3123"><rect
               id="rect3125"
               width="77"
               height="66.75"
               x="283"
               y="134.25"
               style="font-size:60px;font-style:normal;font-variant:normal;font-weight:normal;font-stretch:normal;font-family:Euro Plate;-inkscape-font-specification:Euro Plate" /></flowRegion><flowPara
             id="flowPara3127">ER</flowPara></flowRoot>      </g>
    </g>
  </g>
</svg>
